<svg width="24" height="24" viewBox="0 0 24 24" fill="none" xmlns="http://www.w3.org/2000/svg">
<g clip-path="url(#clip0_110_7414)">
<path d="M6.27235 17.7277C5.06319 16.5185 5.06319 14.5528 6.27235 13.3436L9.10077 10.5152L7.75727 9.17168L4.92884 12.0001C2.97723 13.9517 2.97723 17.1196 4.92884 19.0712C6.88046 21.0228 10.0483 21.0228 11.9999 19.0712L14.8283 16.2428L13.4848 14.8992L10.6564 17.7277C9.44726 18.9368 7.4815 18.9368 6.27235 17.7277ZM9.87859 15.5356L15.5354 9.87879L14.1212 8.46458L8.46438 14.1214L9.87859 15.5356ZM11.9999 4.92904L9.17149 7.75747L10.515 9.10097L13.3434 6.27255C14.5526 5.06339 16.5183 5.06339 17.7275 6.27255C18.9366 7.4817 18.9366 9.44746 17.7275 10.6566L14.8991 13.485L16.2426 14.8285L19.071 12.0001C21.0226 10.0485 21.0226 6.88066 19.071 4.92904C17.1194 2.97743 13.9515 2.97743 11.9999 4.92904Z" fill="#FEAA34"/>
</g>
<defs>
<clipPath id="clip0_110_7414">
<rect width="24" height="24" fill="white"/>
</clipPath>
</defs>
</svg>
